<svg width="89" height="89" viewBox="0 0 89 89" fill="none" xmlns="http://www.w3.org/2000/svg">
<path d="M1.9165 88.0334C1.9165 88.0334 -7 88.0334 22.9998 88.0334L66.9907 88.0334C78.8694 88.0334 88.699 77.978 88.699 66.2119L88.699 25.3215C88.699 13.6839 78.4675 6.83872 66.9907 3.49994C53.2475 -0.496984 40.0684 -1.21933 23.6248 3.49994C12.6945 6.63005 1.9165 12.9294 1.9165 25.3215L1.9165 41.6877L45.2824 41.6877V47.1431L1.9165 47.1431L29 68.5L1.9165 88.0334ZM20.8923 30.7769C16.3916 30.7769 12.7453 27.1294 12.7453 22.6188C12.7453 18.0922 16.3916 14.4107 20.8923 14.4107C25.3769 14.4107 29.0392 18.0922 29.0392 22.6188C29.0392 27.1294 25.3769 30.7769 20.8923 30.7769Z" fill="url(#paint0_linear_6_64)"/>
<defs>
<linearGradient id="paint0_linear_6_64" x1="25.7623" y1="61.7643" x2="61.1586" y2="111.913" gradientUnits="userSpaceOnUse">
<stop stop-color="#49DAC8"/>
<stop offset="1" stop-color="#00B8AA"/>
</linearGradient>
</defs>
</svg>
