<svg width="134" height="135" viewBox="0 0 134 135" fill="none" xmlns="http://www.w3.org/2000/svg">
<path d="M41.3297 134.103V115.034C41.3297 100.251 54.0019 87.8076 68.4524 87.8076H111.818C123.697 87.8076 133.527 77.7521 133.527 65.986L133.527 25.0956C133.527 13.458 123.295 6.61286 111.818 3.27408C98.0751 -0.722839 84.8961 -1.44519 68.4524 3.27408C57.5221 6.40419 46.7441 12.7036 46.7441 25.0956V41.4618L90.1101 41.4618V46.9172L46.7441 46.9172H25.0359C12.4178 46.9172 7.71581 55.6224 3.32762 68.6887C-1.20523 82.1402 -1.01236 95.076 3.32762 112.332C6.44597 124.756 12.4018 134.103 25.0359 134.103L41.3297 134.103ZM65.7199 30.551C61.2192 30.551 57.573 26.9035 57.573 22.393C57.573 17.8663 61.2192 14.1849 65.7199 14.1849C70.2045 14.1849 73.8668 17.8663 73.8668 22.393C73.8668 26.9035 70.2045 30.551 65.7199 30.551Z" fill="url(#paint0_linear_6_64)"/>
<defs>
<linearGradient id="paint0_linear_6_64" x1="66.7633" y1="23.7689" x2="102.16" y2="73.9173" gradientUnits="userSpaceOnUse">
<stop stop-color="#49DAC8"/>
<stop offset="1" stop-color="#00B8AA"/>
</linearGradient>
</defs>
</svg>
